<?xml version="1.0" encoding="iso-8859-1"?>
<!-- Generator: Adobe Illustrator 19.0.0, SVG Export Plug-In . SVG Version: 6.00 Build 0)  -->
<svg version="1.1" id="Capa_1" xmlns="http://www.w3.org/2000/svg" xmlns:xlink="http://www.w3.org/1999/xlink" x="0px" y="0px"
	 viewBox="0 0 512 512" style="enable-background:new 0 0 512 512;" xml:space="preserve">
<g>
	<g>
		<path style="fill:#333;" d="M256,0C114.516,0,0,114.497,0,256c0,141.484,114.497,256,256,256c141.484,0,256-114.497,256-256
			C512,114.516,397.503,0,256,0z M69.215,364.629C50.167,332,40,294.784,40,256c0-119.377,96.607-216,216-216
			c28.879,0,56.893,5.63,82.789,16.37C205.042,104.134,100,219.132,69.215,364.629z M103.265,408.736
			c-0.217-0.217-0.425-0.44-0.641-0.657c18.234-158.953,134.021-286.415,283.651-324.4c13.433,10.199,24.924,21.299,35.095,33.362
			c-154.689,26.765-274.693,158.918-280.98,321.502C127.111,430.097,114.663,420.133,103.265,408.736z M256,472
			c-26.309,0-51.895-4.686-75.821-13.638c-3.219-155.191,112.374-287.474,266.257-304.5C463.134,184.897,472,219.766,472,256
			C472,375.377,375.393,472,256,472z"/>
	</g>
</g>
<g>
</g>
<g>
</g>
<g>
</g>
<g>
</g>
<g>
</g>
<g>
</g>
<g>
</g>
<g>
</g>
<g>
</g>
<g>
</g>
<g>
</g>
<g>
</g>
<g>
</g>
<g>
</g>
<g>
</g>
</svg>
